<svg width="768" height="768" viewBox="0 0 768 768" fill="none" xmlns="http://www.w3.org/2000/svg">
  <rect width="768" height="768" fill="#F8F8F8"/>
  <path d="M231 274C231 252.461 248.461 235 270 235H329C350.539 235 368 252.461 368 274V274C368 295.539 385.461 313 407 313H430C451.539 313 469 330.461 469 352V416C469 437.539 486.461 455 508 455H576C597.539 455 615 472.461 615 494V494C615 515.539 597.539 533 576 533H507C485.461 533 468 550.461 468 572V572C468 593.539 450.539 611 429 611H408C386.461 611 369 593.539 369 572V508C369 486.461 351.539 469 330 469H270C248.461 469 231 451.539 231 430V430C231 408.461 248.461 391 270 391H329C350.539 391 368 373.539 368 352V352C368 330.461 350.539 313 329 313H270C248.461 313 231 295.539 231 274V274Z" fill="#AEB6FF"/>
  <circle cx="193" cy="281" r="79" fill="url(#paint0_linear_1_2)"/>
  <circle cx="411" cy="281" r="79" fill="url(#paint1_linear_1_2)"/>
  <circle cx="356" cy="491" r="79" fill="url(#paint2_linear_1_2)"/>
  <circle cx="576" cy="491" r="79" fill="url(#paint3_linear_1_2)"/>
  <defs>
    <linearGradient id="paint0_linear_1_2" x1="120" y1="212" x2="270" y2="359" gradientUnits="userSpaceOnUse">
      <stop stop-color="#4C56FF"/>
      <stop offset="1" stop-color="#3339D4"/>
    </linearGradient>
    <linearGradient id="paint1_linear_1_2" x1="338" y1="212" x2="488" y2="359" gradientUnits="userSpaceOnUse">
      <stop stop-color="#3D45E8"/>
      <stop offset="1" stop-color="#2C2FBD"/>
    </linearGradient>
    <linearGradient id="paint2_linear_1_2" x1="283" y1="422" x2="433" y2="569" gradientUnits="userSpaceOnUse">
      <stop stop-color="#353DDB"/>
      <stop offset="1" stop-color="#2429B6"/>
    </linearGradient>
    <linearGradient id="paint3_linear_1_2" x1="503" y1="422" x2="653" y2="569" gradientUnits="userSpaceOnUse">
      <stop stop-color="#2F36D2"/>
      <stop offset="1" stop-color="#2023AE"/>
    </linearGradient>
  </defs>
</svg>